HIERARCHY
ROOT Hips
{
    OFFSET   0.000000   0.000000   0.000000
    CHANNELS 6 Xposition Yposition Zposition Zrotation Xrotation Yrotation
    JOINT Chest
    {
        OFFSET   0.000000   8.007230   0.000000
        CHANNELS 3 Zrotation Xrotation Yrotation
        JOINT Chest2
        {
            OFFSET   0.000000  22.077100   0.000000
            CHANNELS 3 Zrotation Xrotation Yrotation
            JOINT Neck
            {
                OFFSET   0.000000  23.254800   0.000000
                CHANNELS 3 Zrotation Xrotation Yrotation
                JOINT Head
                {
                    OFFSET   0.000010  14.370000   1.956600
                    CHANNELS 3 Zrotation Xrotation Yrotation
                    End Site
                    {
                        OFFSET   0.000000  19.566000   0.000000
                    }
                }
            }
            JOINT LeftCollar
            {
                OFFSET   3.911900  19.017000  -0.467062
                CHANNELS 3 Zrotation Xrotation Yrotation
                JOINT LeftShoulder
                {
                    OFFSET  10.383700   0.000000   0.000000
                    CHANNELS 3 Zrotation Xrotation Yrotation
                    JOINT LeftElbow
                    {
                        OFFSET  26.662100   0.001193   0.000835
                        CHANNELS 3 Zrotation Xrotation Yrotation
                        JOINT LeftWrist
                        {
                            OFFSET  28.869000  -0.000058  -0.000075
                            CHANNELS 3 Zrotation Xrotation Yrotation
                            JOINT LeftFinger0
                            {
                                OFFSET   2.044660  -2.323460   3.252850
                                CHANNELS 3 Zrotation Xrotation Yrotation
                                JOINT LeftFinger01
                                {
                                    OFFSET   3.088130   0.000000   0.000000
                                    CHANNELS 3 Zrotation Xrotation Yrotation
                                    JOINT LeftFinger02
                                    {
                                        OFFSET   2.639450   0.000000   0.000000
                                        CHANNELS 3 Zrotation Xrotation Yrotation
                                        End Site
                                        {
                                            OFFSET   2.582190   0.000000   0.000000
                                        }
                                    }
                                }
                            }
                            JOINT LeftFinger1
                            {
                                OFFSET   8.364480   0.000000   3.252850
                                CHANNELS 3 Zrotation Xrotation Yrotation
                                JOINT LeftFinger11
                                {
                                    OFFSET   4.646920   0.000000   0.000000
                                    CHANNELS 3 Zrotation Xrotation Yrotation
                                    JOINT LeftFinger12
                                    {
                                        OFFSET   2.323460   0.000000   0.000000
                                        CHANNELS 3 Zrotation Xrotation Yrotation
                                        End Site
                                        {
                                            OFFSET   2.273050   0.000000   0.000000
                                        }
                                    }
                                }
                            }
                            JOINT LeftFinger2
                            {
                                OFFSET   8.364490   0.000016   1.078090
                                CHANNELS 3 Zrotation Xrotation Yrotation
                                JOINT LeftFinger21
                                {
                                    OFFSET   5.111620   0.000000   0.000000
                                    CHANNELS 3 Zrotation Xrotation Yrotation
                                    JOINT LeftFinger22
                                    {
                                        OFFSET   2.788150   0.000012   0.000000
                                        CHANNELS 3 Zrotation Xrotation Yrotation
                                        End Site
                                        {
                                            OFFSET   2.727660   0.000000   0.000000
                                        }
                                    }
                                }
                            }
                            JOINT LeftFinger3
                            {
                                OFFSET   7.899780   0.000014  -1.078090
                                CHANNELS 3 Zrotation Xrotation Yrotation
                                JOINT LeftFinger31
                                {
                                    OFFSET   4.646930   0.000000   0.000000
                                    CHANNELS 3 Zrotation Xrotation Yrotation
                                    JOINT LeftFinger32
                                    {
                                        OFFSET   2.323470   0.000000   0.000000
                                        CHANNELS 3 Zrotation Xrotation Yrotation
                                        End Site
                                        {
                                            OFFSET   2.273050   0.000000   0.000000
                                        }
                                    }
                                }
                            }
                            JOINT LeftFinger4
                            {
                                OFFSET   7.435090   0.000000  -3.252850
                                CHANNELS 3 Zrotation Xrotation Yrotation
                                JOINT LeftFinger41
                                {
                                    OFFSET   3.717550   0.000000   0.000000
                                    CHANNELS 3 Zrotation Xrotation Yrotation
                                    JOINT LeftFinger42
                                    {
                                        OFFSET   1.858770   0.000000   0.000000
                                        CHANNELS 3 Zrotation Xrotation Yrotation
                                        End Site
                                        {
                                            OFFSET   1.818440   0.000000   0.000000
                                        }
                                    }
                                }
                            }
                        }
                    }
                }
            }
            JOINT RightCollar
            {
                OFFSET  -3.911900  19.017000  -0.467063
                CHANNELS 3 Zrotation Xrotation Yrotation
                JOINT RightShoulder
                {
                    OFFSET -10.383700   0.000023   0.000000
                    CHANNELS 3 Zrotation Xrotation Yrotation
                    JOINT RightElbow
                    {
                        OFFSET -26.662100   0.001246   0.001011
                        CHANNELS 3 Zrotation Xrotation Yrotation
                        JOINT RightWrist
                        {
                            OFFSET -28.869000  -0.000026  -0.000078
                            CHANNELS 3 Zrotation Xrotation Yrotation
                            JOINT RightFinger0
                            {
                                OFFSET  -2.044660  -2.323490   3.252850
                                CHANNELS 3 Zrotation Xrotation Yrotation
                                JOINT RightFinger01
                                {
                                    OFFSET  -3.088130   0.000000   0.000000
                                    CHANNELS 3 Zrotation Xrotation Yrotation
                                    JOINT RightFinger02
                                    {
                                        OFFSET  -2.639460   0.000000   0.000000
                                        CHANNELS 3 Zrotation Xrotation Yrotation
                                        End Site
                                        {
                                            OFFSET  -2.582190   0.000000   0.000000
                                        }
                                    }
                                }
                            }
                            JOINT RightFinger1
                            {
                                OFFSET  -8.364480   0.000000   3.252850
                                CHANNELS 3 Zrotation Xrotation Yrotation
                                JOINT RightFinger11
                                {
                                    OFFSET  -4.646920   0.000000   0.000000
                                    CHANNELS 3 Zrotation Xrotation Yrotation
                                    JOINT RightFinger12
                                    {
                                        OFFSET  -2.323470   0.000000   0.000000
                                        CHANNELS 3 Zrotation Xrotation Yrotation
                                        End Site
                                        {
                                            OFFSET  -2.273050   0.000000   0.000000
                                        }
                                    }
                                }
                            }
                            JOINT RightFinger2
                            {
                                OFFSET  -8.364480   0.000000   1.078090
                                CHANNELS 3 Zrotation Xrotation Yrotation
                                JOINT RightFinger21
                                {
                                    OFFSET  -5.111620   0.000000   0.000000
                                    CHANNELS 3 Zrotation Xrotation Yrotation
                                    JOINT RightFinger22
                                    {
                                        OFFSET  -2.788160   0.000000   0.000000
                                        CHANNELS 3 Zrotation Xrotation Yrotation
                                        End Site
                                        {
                                            OFFSET  -2.727660   0.000000   0.000000
                                        }
                                    }
                                }
                            }
                            JOINT RightFinger3
                            {
                                OFFSET  -7.899780   0.000000  -1.078090
                                CHANNELS 3 Zrotation Xrotation Yrotation
                                JOINT RightFinger31
                                {
                                    OFFSET  -4.646930   0.000000   0.000000
                                    CHANNELS 3 Zrotation Xrotation Yrotation
                                    JOINT RightFinger32
                                    {
                                        OFFSET  -2.323470   0.000000   0.000000
                                        CHANNELS 3 Zrotation Xrotation Yrotation
                                        End Site
                                        {
                                            OFFSET  -2.273050   0.000000   0.000000
                                        }
                                    }
                                }
                            }
                            JOINT RightFinger4
                            {
                                OFFSET  -7.435090   0.000000  -3.252850
                                CHANNELS 3 Zrotation Xrotation Yrotation
                                JOINT RightFinger41
                                {
                                    OFFSET  -3.717550   0.000000   0.000000
                                    CHANNELS 3 Zrotation Xrotation Yrotation
                                    JOINT RightFinger42
                                    {
                                        OFFSET  -1.858760   0.000000   0.000000
                                        CHANNELS 3 Zrotation Xrotation Yrotation
                                        End Site
                                        {
                                            OFFSET  -1.818440   0.000000   0.000000
                                        }
                                    }
                                }
                            }
                        }
                    }
                }
            }
        }
    }
    JOINT LeftHip
    {
        OFFSET   9.783010   0.000000   0.000000
        CHANNELS 3 Zrotation Xrotation Yrotation
        JOINT LeftKnee
        {
            OFFSET   0.000073 -41.789100   0.001749
            CHANNELS 3 Zrotation Xrotation Yrotation
            JOINT LeftAnkle
            {
                OFFSET   0.000111 -41.133200  -0.000179
                CHANNELS 3 Zrotation Xrotation Yrotation
                JOINT LeftToe
                {
                    OFFSET   0.000000  -6.358960  14.674500
                    CHANNELS 3 Zrotation Xrotation Yrotation
                    End Site
                    {
                        OFFSET   0.000000   0.000000   3.913200
                    }
                }
            }
        }
    }
    JOINT RightHip
    {
        OFFSET  -9.783010   0.000000   0.000000
        CHANNELS 3 Zrotation Xrotation Yrotation
        JOINT RightKnee
        {
            OFFSET   0.000424 -41.789200   0.005205
            CHANNELS 3 Zrotation Xrotation Yrotation
            JOINT RightAnkle
            {
                OFFSET   0.000000 -41.133200  -0.000155
                CHANNELS 3 Zrotation Xrotation Yrotation
                JOINT RightToe
                {
                    OFFSET   0.000000  -6.358960  14.674500
                    CHANNELS 3 Zrotation Xrotation Yrotation
                    End Site
                    {
                        OFFSET   0.000000   0.000000   3.913200
                    }
                }
            }
        }
    }
}
MOTION
Frames: 5
Frame Time:   0.016667
 -0.545462  89.429600   1.572140  -4.504860 -10.811100  -5.635500   1.288470   6.248530  -1.546100   2.772090  12.458000  -3.263370   7.675870   1.679810  -0.226128  12.638500   3.219190 -23.669400  -3.500350  -0.076790   2.418500 -76.270100  19.726800  -4.422430  -1.843600  -5.613440 -15.846400  16.526700 -13.637300   5.531130  49.412600  40.010700 -79.323200 -21.761300   0.002468   0.001093  -5.880600   0.000834   0.006151 -29.812600   4.494370  -7.787090 -24.642700  -0.003034   0.012429 -17.249900  -0.004175   0.003760 -28.343900  -0.743116   1.377030 -34.725600   0.003439   0.011536 -23.127300  -0.011472  -0.002332 -28.104500  -0.737258   1.380180 -32.778200   0.003734  -0.004586 -21.830300   0.003605   0.003107 -30.160500  -0.786355   1.353060 -45.255000   0.004891   0.004935 -30.139800   0.003946   0.000715   8.136040  -1.338260   6.373830  56.980200  18.495800   6.684040 -17.930600   2.929450  43.300300 -15.996800  13.168800  -0.905611 -48.313800  37.327600  76.678200  15.784300   0.005713  -0.046652   2.892140  -0.001998  -0.023516  27.276100   8.885730  16.627200  23.387200  -0.006585  -0.034415  16.371100  -0.008424  -0.020301  25.797800   3.963060   8.085640  26.064600  -0.018346  -0.037822  17.359000  -0.017393  -0.021738  24.244600   3.743940   8.174260  24.512200  -0.021326  -0.054617  16.325100  -0.014083  -0.032557  28.322700   1.510080   2.771010  42.554100  -0.024781  -0.036666  28.341100  -0.025934  -0.014048   2.300500  15.550000   4.175590   1.028320   0.118716   7.076850  -0.694149  -5.481870   3.924350  -0.000000   0.000000   0.000000   4.963190  13.756300  -7.151850  -0.202945   1.718150  -5.973650  -1.605340  -5.117200   2.083510  -0.000000   0.000000   0.000000
 -0.581543  89.435800   1.522160  -4.640760 -10.909800  -6.066480   1.318550   6.355920  -1.607070   2.843510  12.670200  -3.393400   7.871760   1.717010  -0.237156  12.961300   3.280550 -24.645400  -3.404220   0.023548   2.418550 -76.144800  19.916900  -4.506260  -1.959220  -5.744140 -15.961200  16.479300 -13.634700   5.496560  49.479800  40.061100 -79.393300 -21.742500   0.002460   0.001066  -5.871210   0.000836   0.006157 -29.805500   4.506500  -7.806960 -24.638200  -0.003033   0.012429 -17.246800  -0.004173   0.003761 -28.344400  -0.732355   1.357910 -34.710400   0.003439   0.011539 -23.117100  -0.011476  -0.002333 -28.103500  -0.726608   1.361020 -32.765900   0.003734  -0.004586 -21.822100   0.003606   0.003105 -30.147300  -0.775149   1.334490 -45.234800   0.004891   0.004936 -30.126400   0.003946   0.000714   8.087920  -1.317040   6.353540  56.098500  18.804100   7.314700 -19.240100   3.193150  45.491300 -15.687200  15.519700  -0.551650 -48.264300  37.283900  76.617100  15.189900   0.005788  -0.051895   2.594950  -0.002010  -0.026113  26.758100   8.769510  16.769400  22.958100  -0.006610  -0.039702  16.070700  -0.008418  -0.020166  25.279300   3.884970   8.096110  25.544500  -0.018343  -0.043043  17.012600  -0.017428  -0.024817  23.542200   3.638720   8.195290  23.801200  -0.020074  -0.061362  15.851600  -0.013961  -0.036773  27.998800   1.555560   2.885610  42.077800  -0.033044  -0.050751  28.023900  -0.034943  -0.020141   2.344750  15.687900   4.252440   1.030050   0.138215   7.332640  -0.715857  -5.502440   3.996860  -0.000000   0.000000  -0.000000   5.017510  13.763000  -7.181610  -0.238539   1.804230  -5.681250  -1.606230  -5.065940   2.239220   0.000000   0.000000   0.000000
 -0.641033  89.445200   1.435530  -4.871160 -11.071300  -6.790400   1.367760   6.538660  -1.713060   2.962200  13.031000  -3.619400   8.188560   1.774760  -0.254940  13.486000   3.373320 -26.275900  -3.235270   0.191088   2.418900 -75.927900  20.222600  -4.663510  -2.152590  -5.932950 -16.147500  16.400100 -13.625800   5.444540  49.599000  40.136700 -79.493200 -21.710100   0.002453   0.001038  -5.855040   0.000841   0.006170 -29.792700   4.518640  -7.834840 -24.629200  -0.003031   0.012430 -17.240500  -0.004171   0.003762 -28.345100  -0.718578   1.331780 -34.682400   0.003440   0.011547 -23.098500  -0.011485  -0.002335 -28.101000  -0.712908   1.334850 -32.740900   0.003736  -0.004587 -21.805500   0.003609   0.003102 -30.122100  -0.759656   1.309170 -45.196400   0.004891   0.004939 -30.100800   0.003947   0.000713   8.003260  -1.277670   6.333210  54.547800  19.340200   8.443310 -21.421700   3.466850  49.121600 -15.254800  19.329600   0.013765 -48.149200  37.158200  76.434500  14.178900   0.005863  -0.057137   2.089420  -0.002037  -0.028710  25.865800   8.544650  16.975600  22.211800  -0.006671  -0.044990  15.548300  -0.008405  -0.020031  24.394900   3.735610   8.105920  24.654600  -0.018331  -0.048265  16.420000  -0.017504  -0.027897  22.329300   3.442050   8.215530  22.572300  -0.017383  -0.068107  15.033200  -0.013838  -0.040989  27.347400   1.644010   3.132370  41.115000  -0.041307  -0.064836  27.382600  -0.043952  -0.026235   2.411200  15.917400   4.390990   1.040120   0.166262   7.763850  -0.754225  -5.531060   4.109230  -0.000000   0.000000  -0.000000   5.108320  13.779100  -7.211670  -0.296890   1.938720  -5.237450  -1.604360  -4.975460   2.527670  -0.000000   0.000000  -0.000000
 -0.687443  89.450900   1.358980  -5.058670 -11.196000  -7.377570   1.404270   6.692020  -1.807580   3.053430  13.333700  -3.820290   8.423980   1.810890  -0.267851  13.875000   3.431500 -27.600400  -3.079950   0.330203   2.437600 -75.739700  20.431100  -4.827700  -2.307120  -6.011200 -16.287900  16.337100 -13.603300   5.415440  49.686300  40.179000 -79.534300 -21.681400   0.002463   0.001054  -5.840700   0.000846   0.006186 -29.777800   4.518630  -7.847160 -24.617300  -0.003029   0.012443 -17.232100  -0.004172   0.003757 -28.342700  -0.715401   1.322850 -34.652700   0.003444   0.011555 -23.078700  -0.011497  -0.002332 -28.096800  -0.709700   1.325910 -32.709700   0.003737  -0.004594 -21.784700   0.003612   0.003101 -30.093500  -0.753858   1.300730 -45.153200   0.004894   0.004945 -30.072000   0.003949   0.000714   7.924410  -1.233310   6.333800  53.155700  19.803100   9.494300 -23.058800   3.455120  52.014700 -14.960800  22.160200   0.384153 -47.963500  36.917100  76.084600  13.300900   0.005699  -0.045588   1.650470  -0.002072  -0.022891  25.078800   8.298600  17.092600  21.541400  -0.006769  -0.037193  15.079000  -0.008391  -0.020369  23.625400   3.574460   8.062920  23.871600  -0.018305  -0.037748  15.898600  -0.017602  -0.020633  21.231400   3.235030   8.186560  21.456900  -0.013462  -0.053272  14.290300  -0.014100  -0.032205  26.549300   1.747490   3.465130  39.926500  -0.033520  -0.054501  26.591100  -0.036043  -0.022538   2.447600  16.099900   4.526110   1.066270   0.176669   8.115250  -0.789281  -5.539720   4.180320  -0.000000   0.000000   0.000000   5.179950  13.804100  -7.183660  -0.337483   2.024650  -4.985020  -1.597520  -4.891610   2.822430  -0.000000   0.000000   0.000000
 -0.732721  89.455200   1.278840  -5.251050 -11.317900  -7.977140   1.440400   6.851350  -1.906060   3.145320  13.648100  -4.029840   8.642920   1.844140  -0.280171  14.236500   3.484760 -28.903700  -2.918160   0.460798   2.473940 -75.539600  20.651300  -5.008510  -2.461020  -6.079850 -16.416800  16.272200 -13.587000   5.391560  49.758500  40.213100 -79.559800 -21.652900   0.002473   0.001069  -5.826440   0.000855   0.006205 -29.764300   4.518610  -7.851460 -24.606300  -0.003028   0.012465 -17.224400  -0.004174   0.003753 -28.338800  -0.714555   1.320920 -34.623900   0.003449   0.011569 -23.059500  -0.011512  -0.002330 -28.092100  -0.708843   1.324000 -32.676800   0.003739  -0.004600 -21.762800   0.003615   0.003097 -30.064000  -0.752058   1.299050 -45.108800   0.004897   0.004953 -30.042400   0.003952   0.000717   7.842780  -1.193060   6.338640  51.655400  20.326900  10.658900 -24.673400   3.297180  54.792700 -14.783800  24.841900   0.740883 -47.797500  36.665100  75.717600  12.450800   0.005375  -0.029352   1.225420  -0.002115  -0.014712  24.277200   8.016000  17.139400  20.849900  -0.006885  -0.025813  14.594900  -0.008374  -0.021156  22.878400   3.393900   7.946270  23.106700  -0.018279  -0.022984  15.389100  -0.017721  -0.013368  20.163100   3.012850   8.089210  20.369000  -0.009823  -0.032277  13.565800  -0.014605  -0.019754  25.701200   1.853680   3.828350  38.661800  -0.022365  -0.038479  25.748800  -0.024382  -0.016817   2.479980  16.282700   4.668500   1.096520   0.187303   8.480170  -0.827926  -5.546370   4.243210  -0.000000   0.000000   0.000000   5.250270  13.832600  -7.134690  -0.377575   2.105020  -4.762560  -1.582510  -4.803460   3.145560   0.000000   0.000000  -0.000000
